<?xml version="1.0" encoding="UTF-8" standalone="no"?>
<svg
   xmlns:dc="http://purl.org/dc/elements/1.1/"
   xmlns:cc="http://creativecommons.org/ns#"
   xmlns:rdf="http://www.w3.org/1999/02/22-rdf-syntax-ns#"
   xmlns:svg="http://www.w3.org/2000/svg"
   xmlns="http://www.w3.org/2000/svg"
   xmlns:sodipodi="http://sodipodi.sourceforge.net/DTD/sodipodi-0.dtd"
   xmlns:inkscape="http://www.inkscape.org/namespaces/inkscape"
   id="svg8"
   version="1.1"
   viewBox="0 0 36 36"
   height="36"
   width="36"
   sodipodi:docname="floating_controller.svg.2020_05_24_01_17_25.0.svg"
   inkscape:version="1.0 (6e3e5246a0, 2020-05-07)">
  <sodipodi:namedview
     inkscape:snap-global="false"
     inkscape:snap-page="true"
     inkscape:document-rotation="0"
     pagecolor="#ffffff"
     bordercolor="#666666"
     borderopacity="1"
     objecttolerance="10"
     gridtolerance="10"
     guidetolerance="10"
     inkscape:pageopacity="0"
     inkscape:pageshadow="2"
     inkscape:window-width="1920"
     inkscape:window-height="1016"
     id="namedview838"
     showgrid="false"
     scale-x="1"
     fit-margin-top="0"
     fit-margin-left="0"
     fit-margin-right="0"
     fit-margin-bottom="0"
     inkscape:zoom="10.853019"
     inkscape:cx="5.9002033"
     inkscape:cy="8.5845963"
     inkscape:window-x="0"
     inkscape:window-y="0"
     inkscape:window-maximized="1"
     inkscape:current-layer="svg8" />
  <defs
     id="defs2" />
  <metadata
     id="metadata5">
    <rdf:RDF>
      <cc:Work
         rdf:about="">
        <dc:format>image/svg+xml</dc:format>
        <dc:type
           rdf:resource="http://purl.org/dc/dcmitype/StillImage" />
        <dc:title />
      </cc:Work>
    </rdf:RDF>
  </metadata>
  <circle
     style="fill:#480a2a;fill-opacity:1;stroke:none;stroke-width:2.50594;stroke-miterlimit:4;stroke-dasharray:none;stroke-opacity:0.985824"
     id="path21"
     cx="25.455849"
     cy="8.0532036e-06"
     r="18"
     transform="rotate(45)" />
  <g
     transform="translate(0.5301834,-0.32918302)"
     style="font-style:normal;font-variant:normal;font-weight:normal;font-stretch:normal;font-size:11.7167px;line-height:1.25;font-family:Consolas;-inkscape-font-specification:Consolas;letter-spacing:0px;word-spacing:0px;fill:#ffffff;fill-opacity:1;stroke:none;stroke-width:0.292917"
     id="text853"
     aria-label="A" />
  <g
     transform="translate(-0.81069324,-0.32918302)"
     style="font-style:normal;font-variant:normal;font-weight:normal;font-stretch:normal;font-size:11.7167px;line-height:1.25;font-family:Consolas;-inkscape-font-specification:Consolas;letter-spacing:0px;word-spacing:0px;fill:#ffffff;fill-opacity:1;stroke:none;stroke-width:0.292917"
     id="text857"
     aria-label="B">
    <path
       d="m 28.619306,19.830958 q 0,0.537778 -0.211679,0.955414 -0.205957,0.411916 -0.594988,0.697968 -0.38331,0.286052 -0.932531,0.434799 -0.543499,0.148747 -1.212861,0.148747 H 23.71065 v -7.477405 h 2.13967 q 2.500097,0 2.500097,1.819292 0,0.606431 -0.291773,1.04123 -0.286053,0.4348 -0.938252,0.646478 0.303216,0.05721 0.572105,0.194516 0.27461,0.137305 0.480568,0.354705 0.205957,0.217399 0.326099,0.514894 0.120142,0.297494 0.120142,0.669362 z m -1.327282,-3.28388 q 0,-0.228842 -0.06865,-0.429078 -0.06865,-0.205958 -0.240284,-0.348984 -0.171631,-0.148747 -0.463404,-0.234563 -0.291774,-0.08581 -0.738015,-0.08581 h -1.052672 v 2.339907 h 1.018346 q 0.348983,0 0.629314,-0.07437 0.286053,-0.07437 0.486289,-0.228841 0.205958,-0.154469 0.314658,-0.38331 0.114421,-0.234563 0.114421,-0.554942 z m 0.246005,3.318206 q 0,-0.286052 -0.120142,-0.514894 -0.120142,-0.228842 -0.348984,-0.38331 -0.228842,-0.160189 -0.560663,-0.246005 -0.326099,-0.08582 -0.738014,-0.08582 h -1.04123 v 2.57447 h 1.075556 q 0.87532,0 1.304398,-0.3261 0.429079,-0.326099 0.429079,-1.018346 z M 14.532285,22.067886 H 13.422402 L 12.901787,20.437389 H 9.7895386 L 9.2632025,22.067886 H 8.2048092 l 2.4829338,-7.477405 h 1.395935 z m -1.922271,-2.540144 -1.264351,-3.99901 -1.264351,3.99901 z m 6.972163,-7.962231 v 0.492188 13.035156 H 32.748193 V 11.565511 Z m 0.988282,0.986328 H 31.759912 V 24.106527 H 20.570459 Z M 4.7853026,11.565511 v 0.492188 13.035156 H 17.951318 V 11.565511 Z m 0.9882812,0.986328 H 16.963037 V 24.106527 H 5.7735838 Z"
       style="fill:#ffffff;stroke-width:0.292917"
       id="path843" />
  </g>
</svg>
