<?xml version="1.0" encoding="UTF-8" standalone="no"?>
<svg
   xmlns:dc="http://purl.org/dc/elements/1.1/"
   xmlns:cc="http://creativecommons.org/ns#"
   xmlns:rdf="http://www.w3.org/1999/02/22-rdf-syntax-ns#"
   xmlns:svg="http://www.w3.org/2000/svg"
   xmlns="http://www.w3.org/2000/svg"
   xmlns:sodipodi="http://sodipodi.sourceforge.net/DTD/sodipodi-0.dtd"
   xmlns:inkscape="http://www.inkscape.org/namespaces/inkscape"
   id="svg8"
   version="1.1"
   viewBox="0 0 36 36"
   height="36"
   width="36"
   sodipodi:docname="delete.svg"
   inkscape:version="1.0 (6e3e5246a0, 2020-05-07)">
  <sodipodi:namedview
     inkscape:guide-bbox="true"
     showguides="true"
     inkscape:document-rotation="0"
     pagecolor="#ffffff"
     bordercolor="#666666"
     borderopacity="1"
     objecttolerance="10"
     gridtolerance="10"
     guidetolerance="10"
     inkscape:pageopacity="0"
     inkscape:pageshadow="2"
     inkscape:window-width="1920"
     inkscape:window-height="1016"
     id="namedview838"
     showgrid="false"
     scale-x="1"
     fit-margin-top="0"
     fit-margin-left="0"
     fit-margin-right="0"
     fit-margin-bottom="0"
     inkscape:zoom="8.1219071"
     inkscape:cx="0.54192179"
     inkscape:cy="25.392714"
     inkscape:window-x="0"
     inkscape:window-y="0"
     inkscape:window-maximized="1"
     inkscape:current-layer="svg8"
     inkscape:snap-page="true"
     inkscape:snap-bbox="true"
     inkscape:snap-bbox-midpoints="false"
     inkscape:snap-bbox-edge-midpoints="true"
     inkscape:snap-nodes="false" />
  <defs
     id="defs2" />
  <metadata
     id="metadata5">
    <rdf:RDF>
      <cc:Work
         rdf:about="">
        <dc:format>image/svg+xml</dc:format>
        <dc:type
           rdf:resource="http://purl.org/dc/dcmitype/StillImage" />
        <dc:title></dc:title>
      </cc:Work>
    </rdf:RDF>
  </metadata>
  <path
     id="path21"
     transform="rotate(45)"
     d="m 43.455845,0 a 18,18 0 0 1 -18,18 A 18,18 0 0 1 7.4558449,0 18,18 0 0 1 25.455845,-18 a 18,18 0 0 1 18,18"
     style="fill:#ddd6dd;fill-opacity:1;stroke:none;stroke-width:2.50594;stroke-miterlimit:4;stroke-dasharray:none;stroke-opacity:0.985824" />
  <g
     id="g920"
     style="opacity:0.252195;fill:#a6a1a6;fill-opacity:1"
     transform="matrix(3.7795277,0,0,3.7795277,27.334137,-1.1535762)" />
  <path
     sodipodi:nodetypes="ccccccccccccccccccccccccccccccccccccccccccc"
     d="M 12.386719,7.8535156 11.010172,8.8634628 10.436235,8.6656744 10.142578,9.5 l 10.503906,3.447266 -11.2265621,-0.125 0.050781,1.388672 2.5546881,0.996093 2.24414,13.597657 0.316407,0.01367 v 0.435547 l 0.761718,-0.01367 v -0.435546 h 4.015625 c -0.419968,-0.517742 -0.650089,-1.165376 -0.65039,-1.832032 -1.8e-4,-1.606375 1.301828,-2.908383 2.908203,-2.908203 0.06158,5.03e-4 0.124126,0.0034 0.185547,0.0078 v -9.167969 l 1.933593,-0.265625 4.97461,-4.400391 -1.548828,-1.2324216 -2.496094,2.3398436 -0.177734,0.162109 c 0.004,-0.04173 0.0069,-0.08309 0.0078,-0.125 -0.0011,-0.948255 -0.770498,-1.7158317 -1.71875,-1.7128901 -0.03936,-0.00136 -0.07978,-0.00136 -0.119141,0 -0.650531,0.043946 -1.219618,0.4540881 -1.46875,1.0566401 z M 22.78125,10.570312 c 0.448935,-0.0021 0.812675,0.363565 0.810547,0.8125 -0.0012,0.446622 -0.36393,0.806802 -0.810547,0.804688 -0.444306,-0.0012 -0.803533,-0.36038 -0.804688,-0.804688 -0.0021,-0.446616 0.358067,-0.811341 0.804688,-0.8125 z m -1.160156,14.144532 c -1.247998,-0.0025 -2.260334,1.009814 -2.257813,2.257812 7.23e-4,1.24571 1.012106,2.254468 2.257813,2.251953 1.243419,-7.24e-4 2.251229,-1.008534 2.251953,-2.251953 0.0025,-1.245707 -1.006244,-2.257089 -2.251953,-2.257812 z M 20.5625,25.914062 h 2.109375 v 2.111329 H 20.5625 Z"
     style="fill:#a6a1a6;fill-opacity:1;stroke-width:5.2961;stroke-opacity:0.985824;stop-color:#000000"
     id="path885" />
</svg>
