<?xml version="1.0" encoding="UTF-8" standalone="no"?>
<svg
   xmlns:dc="http://purl.org/dc/elements/1.1/"
   xmlns:cc="http://creativecommons.org/ns#"
   xmlns:rdf="http://www.w3.org/1999/02/22-rdf-syntax-ns#"
   xmlns:svg="http://www.w3.org/2000/svg"
   xmlns="http://www.w3.org/2000/svg"
   xmlns:sodipodi="http://sodipodi.sourceforge.net/DTD/sodipodi-0.dtd"
   xmlns:inkscape="http://www.inkscape.org/namespaces/inkscape"
   sodipodi:docname="map.svg"
   inkscape:version="1.0 (6e3e5246a0, 2020-05-07)"
   id="svg8"
   version="1.1"
   viewBox="0 0 11.1125 11.1125"
   height="42"
   width="42">
  <defs
     id="defs2" />
  <sodipodi:namedview
     inkscape:snap-page="true"
     inkscape:snap-nodes="false"
     inkscape:document-rotation="0"
     units="px"
     fit-margin-bottom="0"
     fit-margin-right="0"
     fit-margin-left="0"
     fit-margin-top="0"
     inkscape:snap-bbox-edge-midpoints="true"
     inkscape:snap-bbox="false"
     inkscape:object-paths="true"
     inkscape:snap-midpoints="true"
     inkscape:window-maximized="1"
     inkscape:window-y="0"
     inkscape:window-x="0"
     inkscape:window-height="1016"
     inkscape:window-width="1920"
     inkscape:guide-bbox="true"
     showguides="true"
     showgrid="false"
     inkscape:current-layer="layer1"
     inkscape:document-units="mm"
     inkscape:cy="16.058268"
     inkscape:cx="0.2367883"
     inkscape:zoom="9.8452381"
     inkscape:pageshadow="2"
     inkscape:pageopacity="0.0"
     borderopacity="1.0"
     bordercolor="#666666"
     pagecolor="#ffffff"
     id="base" />
  <metadata
     id="metadata5">
    <rdf:RDF>
      <cc:Work
         rdf:about="">
        <dc:format>image/svg+xml</dc:format>
        <dc:type
           rdf:resource="http://purl.org/dc/dcmitype/StillImage" />
        <dc:title></dc:title>
      </cc:Work>
    </rdf:RDF>
  </metadata>
  <g
     transform="translate(74.786934,-166.80766)"
     id="layer1"
     inkscape:groupmode="layer"
     inkscape:label="Calque 1">
    <circle
       transform="rotate(45)"
       r="5.1967793"
       cy="170.83318"
       cx="72.926208"
       id="path21"
       style="fill:#480a2a;fill-opacity:1;stroke:#0fac8d;stroke-width:0.72349;stroke-miterlimit:4;stroke-dasharray:none;stroke-opacity:0.985824" />
    <path
       id="path864"
       d="m -67.986549,175.43447 c -6e-5,-0.67734 -0.542349,-1.22996 -1.244135,-1.22994 -0.701786,2e-5 -1.244076,0.5526 -1.244135,1.22994 -1.02e-4,0.68672 0.556618,1.24334 1.244135,1.24334 0.687517,0 1.244237,-0.55662 1.244135,-1.24334 z"
       style="opacity:1;fill:none;fill-opacity:1;stroke:#851b26;stroke-width:0.388451;stroke-opacity:1;stop-color:#000000" />
    <path
       style="opacity:1;fill:#0cae8d;fill-opacity:1;stroke:#353482;stroke-width:0.18972356;stroke-opacity:1;stop-color:#000000"
       d="m -68.621045,175.43789 c -2.9e-5,-0.33191 -0.265756,-0.6027 -0.609639,-0.60268 -0.343883,1e-5 -0.60961,0.27077 -0.609639,0.60268 -5e-5,0.3365 0.272749,0.60924 0.609639,0.60924 0.33689,0 0.609689,-0.27274 0.609639,-0.60924 z"
       id="path870" />
    <path
       d="m -69.230684,167.89651 c -1.333583,0 -2.364084,1.05019 -2.364196,2.33732 -4.2e-5,0.28631 0.08753,0.77515 0.286287,1.15342 l 1.793172,3.41219 c 0.06771,0.12888 0.150234,0.27802 0.284737,0.27802 0.134504,0 0.216511,-0.14914 0.284221,-0.27802 l 1.793172,-3.41219 c 0.198753,-0.37827 0.286846,-0.86711 0.286804,-1.15342 -1.13e-4,-1.28713 -1.030613,-2.33732 -2.364197,-2.33732 z m 0,1.17615 c 0.666018,-2e-5 1.180233,0.52455 1.18029,1.16737 9.7e-5,0.65172 -0.527813,1.17978 -1.18029,1.17978 -0.652477,0 -1.180903,-0.52806 -1.180806,-1.17978 5.6e-5,-0.64282 0.514788,-1.16735 1.180806,-1.16737 z"
       style="opacity:1;fill:#df1980;fill-opacity:1;stroke:#410d26;stroke-width:0.2221738;stroke-opacity:1;stop-color:#000000"
       id="path874" />
  </g>
</svg>
