<?xml version="1.0" encoding="UTF-8" standalone="no"?>
<svg
   xmlns:dc="http://purl.org/dc/elements/1.1/"
   xmlns:cc="http://creativecommons.org/ns#"
   xmlns:rdf="http://www.w3.org/1999/02/22-rdf-syntax-ns#"
   xmlns:svg="http://www.w3.org/2000/svg"
   xmlns="http://www.w3.org/2000/svg"
   xmlns:sodipodi="http://sodipodi.sourceforge.net/DTD/sodipodi-0.dtd"
   xmlns:inkscape="http://www.inkscape.org/namespaces/inkscape"
   id="svg8"
   version="1.1"
   viewBox="0 0 36 36"
   height="36"
   width="36"
   sodipodi:docname="project-description.svg"
   inkscape:version="1.0 (6e3e5246a0, 2020-05-07)">
  <sodipodi:namedview
     inkscape:snap-global="false"
     inkscape:object-paths="true"
     inkscape:snap-bbox-midpoints="true"
     fit-margin-bottom="0"
     fit-margin-right="0"
     fit-margin-left="0"
     fit-margin-top="0"
     inkscape:bbox-paths="true"
     inkscape:snap-bbox="true"
     inkscape:snap-intersection-paths="true"
     inkscape:document-rotation="0"
     pagecolor="#ffffff"
     bordercolor="#666666"
     borderopacity="1"
     objecttolerance="10"
     gridtolerance="10"
     guidetolerance="10"
     inkscape:pageopacity="0"
     inkscape:pageshadow="2"
     inkscape:window-width="1920"
     inkscape:window-height="1016"
     id="namedview7"
     showgrid="false"
     inkscape:snap-page="true"
     showguides="true"
     inkscape:guide-bbox="true"
     inkscape:zoom="22.972222"
     inkscape:cx="18"
     inkscape:cy="18"
     inkscape:window-x="0"
     inkscape:window-y="0"
     inkscape:window-maximized="1"
     inkscape:current-layer="svg8" />
  <defs
     id="defs2" />
  <metadata
     id="metadata5">
    <rdf:RDF>
      <cc:Work
         rdf:about="">
        <dc:format>image/svg+xml</dc:format>
        <dc:type
           rdf:resource="http://purl.org/dc/dcmitype/StillImage" />
        <dc:title></dc:title>
      </cc:Work>
    </rdf:RDF>
  </metadata>
  <path
     style="color:#000000;font-style:normal;font-variant:normal;font-weight:normal;font-stretch:normal;font-size:medium;line-height:normal;font-family:sans-serif;font-variant-ligatures:normal;font-variant-position:normal;font-variant-caps:normal;font-variant-numeric:normal;font-variant-alternates:normal;font-variant-east-asian:normal;font-feature-settings:normal;font-variation-settings:normal;text-indent:0;text-align:start;text-decoration:none;text-decoration-line:none;text-decoration-style:solid;text-decoration-color:#000000;letter-spacing:normal;word-spacing:normal;text-transform:none;writing-mode:lr-tb;direction:ltr;text-orientation:mixed;dominant-baseline:auto;baseline-shift:baseline;text-anchor:start;white-space:normal;shape-padding:0;shape-margin:0;inline-size:0;clip-rule:nonzero;display:inline;overflow:visible;visibility:visible;opacity:1;isolation:auto;mix-blend-mode:normal;color-interpolation:sRGB;color-interpolation-filters:linearRGB;solid-color:#000000;solid-opacity:1;vector-effect:none;fill:#00ffff;fill-opacity:1;fill-rule:nonzero;stroke:none;stroke-width:4;stroke-linecap:butt;stroke-linejoin:miter;stroke-miterlimit:4;stroke-dasharray:none;stroke-dashoffset:0;stroke-opacity:1;color-rendering:auto;image-rendering:auto;shape-rendering:auto;text-rendering:auto;enable-background:accumulate;stop-color:#000000;stop-opacity:1"
     d="m 19.164062,12.158203 c -2.27616,0 -4.28726,1.234086 -5.395072,3.064028 -0.574184,0.948468 -0.905709,2.057008 -0.905709,3.236753 0,1.348922 0.433424,2.604752 1.167433,3.63465 1.146504,1.608677 3.026365,2.666132 5.133348,2.666132 h 8.601563 c 3.455905,0 6.300781,-2.844877 6.300781,-6.300782 0,-3.455905 -2.844876,-6.300781 -6.300781,-6.300781 z m 0,4 h 8.601563 c 1.309095,0 2.300781,0.991687 2.300781,2.300781 0,1.309094 -0.991686,2.300782 -2.300781,2.300782 h -7.336911 -1.264652 c -1.309094,0 -2.300781,-0.991688 -2.300781,-2.300782 0,-0.874216 0.442253,-1.606881 1.125949,-1.997186 0.340104,-0.194157 0.739954,-0.303595 1.174832,-0.303595 z"
     id="path1053"
     sodipodi:nodetypes="ssssssssssssscssss" />
  <circle
     style="font-variation-settings:normal;vector-effect:none;fill:#480a2a;fill-opacity:1;stroke:none;stroke-width:2.50594;stroke-linecap:butt;stroke-linejoin:miter;stroke-miterlimit:4;stroke-dasharray:none;stroke-dashoffset:0;stroke-opacity:0.985824;stop-color:#000000"
     id="path21"
     cx="25.455845"
     cy="2.1848059e-08"
     r="18"
     transform="rotate(45)" />
  <g
     transform="matrix(0.33974555,0.33974555,-0.33974555,0.33974555,-20.716867,7.413826)"
     id="g1110" />
  <g
     transform="matrix(0.92853903,0,0,0.92853903,0.35550212,1.628122)"
     id="g1158">
    <path
       sodipodi:nodetypes="cccccccccccccccccccccccccccccssccccccsscssccssscccccc"
       d="m 11.126506,11.232684 v 0.994637 h 6.038372 v -0.994637 z m 0,4.368905 v 0.994635 h 9.963388 v -0.994635 z m 0,4.369656 v 0.994636 h 9.963388 v -0.994636 z m 0,4.184829 v 0.994635 h 9.963388 V 24.156074 Z M 7.9720339,6.9001714 V 7.6705792 28.874848 H 24.24464 V 12.548073 L 19.295674,6.9001714 Z M 9.512849,8.4409871 h 8.663325 v 2.5888409 c 0,1.415305 1.163755,2.57906 2.579061,2.57906 h 1.948589 V 27.334032 H 9.512849 Z M 19.71699,9.71848 l 2.058434,2.349593 h -1.020189 c -0.588346,0 -1.038245,-0.449899 -1.038245,-1.038245 z M 31.266502,6.5607515 C 31.163513,6.4577624 30.997581,6.4580179 30.894592,6.5610069 L 29.763527,7.6920727 31.301265,9.22981 32.43233,8.0987451 c 0.10299,-0.1029899 0.10299,-0.2691757 0,-0.3721656 z M 28.986734,8.4688648 15.209719,22.24588 14.931617,24.06172 16.747456,23.783619 30.524472,10.006603 Z"
       style="color:#000000;font-style:normal;font-variant:normal;font-weight:normal;font-stretch:normal;font-size:medium;line-height:normal;font-family:sans-serif;font-variant-ligatures:normal;font-variant-position:normal;font-variant-caps:normal;font-variant-numeric:normal;font-variant-alternates:normal;font-variant-east-asian:normal;font-feature-settings:normal;font-variation-settings:normal;text-indent:0;text-align:start;text-decoration:none;text-decoration-line:none;text-decoration-style:solid;text-decoration-color:#000000;letter-spacing:normal;word-spacing:normal;text-transform:none;writing-mode:lr-tb;direction:ltr;text-orientation:mixed;dominant-baseline:auto;baseline-shift:baseline;text-anchor:start;white-space:normal;shape-padding:0;shape-margin:0;inline-size:0;clip-rule:nonzero;display:inline;overflow:visible;visibility:visible;opacity:1;isolation:auto;mix-blend-mode:normal;color-interpolation:sRGB;color-interpolation-filters:linearRGB;solid-color:#000000;solid-opacity:1;vector-effect:none;fill:#ffffff;fill-opacity:1;fill-rule:nonzero;stroke:none;stroke-width:0.385204px;stroke-linecap:butt;stroke-linejoin:miter;stroke-miterlimit:4;stroke-dasharray:none;stroke-dashoffset:0;stroke-opacity:1;color-rendering:auto;image-rendering:auto;shape-rendering:auto;text-rendering:auto;enable-background:accumulate;stop-color:#000000;stop-opacity:1"
       id="path1164" />
  </g>
</svg>
