<?xml version="1.0" encoding="UTF-8" standalone="no"?>
<svg
   xmlns:dc="http://purl.org/dc/elements/1.1/"
   xmlns:cc="http://creativecommons.org/ns#"
   xmlns:rdf="http://www.w3.org/1999/02/22-rdf-syntax-ns#"
   xmlns:svg="http://www.w3.org/2000/svg"
   xmlns="http://www.w3.org/2000/svg"
   xmlns:sodipodi="http://sodipodi.sourceforge.net/DTD/sodipodi-0.dtd"
   xmlns:inkscape="http://www.inkscape.org/namespaces/inkscape"
   id="svg8"
   version="1.1"
   viewBox="0 0 36 36"
   height="36"
   width="36"
   sodipodi:docname="project-instruction.svg"
   inkscape:version="1.0 (6e3e5246a0, 2020-05-07)">
  <sodipodi:namedview
     inkscape:snap-global="false"
     inkscape:object-paths="true"
     inkscape:snap-bbox-midpoints="true"
     fit-margin-bottom="0"
     fit-margin-right="0"
     fit-margin-left="0"
     fit-margin-top="0"
     inkscape:bbox-paths="true"
     inkscape:snap-bbox="true"
     inkscape:snap-intersection-paths="true"
     inkscape:document-rotation="0"
     pagecolor="#ffffff"
     bordercolor="#666666"
     borderopacity="1"
     objecttolerance="10"
     gridtolerance="10"
     guidetolerance="10"
     inkscape:pageopacity="0"
     inkscape:pageshadow="2"
     inkscape:window-width="1920"
     inkscape:window-height="1016"
     id="namedview7"
     showgrid="false"
     inkscape:snap-page="true"
     showguides="true"
     inkscape:guide-bbox="true"
     inkscape:zoom="16.243814"
     inkscape:cx="7.1917692"
     inkscape:cy="15.248191"
     inkscape:window-x="0"
     inkscape:window-y="0"
     inkscape:window-maximized="1"
     inkscape:current-layer="svg8" />
  <defs
     id="defs2" />
  <metadata
     id="metadata5">
    <rdf:RDF>
      <cc:Work
         rdf:about="">
        <dc:format>image/svg+xml</dc:format>
        <dc:type
           rdf:resource="http://purl.org/dc/dcmitype/StillImage" />
        <dc:title></dc:title>
      </cc:Work>
    </rdf:RDF>
  </metadata>
  <path
     style="color:#000000;font-style:normal;font-variant:normal;font-weight:normal;font-stretch:normal;font-size:medium;line-height:normal;font-family:sans-serif;font-variant-ligatures:normal;font-variant-position:normal;font-variant-caps:normal;font-variant-numeric:normal;font-variant-alternates:normal;font-variant-east-asian:normal;font-feature-settings:normal;font-variation-settings:normal;text-indent:0;text-align:start;text-decoration:none;text-decoration-line:none;text-decoration-style:solid;text-decoration-color:#000000;letter-spacing:normal;word-spacing:normal;text-transform:none;writing-mode:lr-tb;direction:ltr;text-orientation:mixed;dominant-baseline:auto;baseline-shift:baseline;text-anchor:start;white-space:normal;shape-padding:0;shape-margin:0;inline-size:0;clip-rule:nonzero;display:inline;overflow:visible;visibility:visible;opacity:1;isolation:auto;mix-blend-mode:normal;color-interpolation:sRGB;color-interpolation-filters:linearRGB;solid-color:#000000;solid-opacity:1;vector-effect:none;fill:#00ffff;fill-opacity:1;fill-rule:nonzero;stroke:none;stroke-width:4;stroke-linecap:butt;stroke-linejoin:miter;stroke-miterlimit:4;stroke-dasharray:none;stroke-dashoffset:0;stroke-opacity:1;color-rendering:auto;image-rendering:auto;shape-rendering:auto;text-rendering:auto;enable-background:accumulate;stop-color:#000000;stop-opacity:1"
     d="m 19.164062,12.158203 c -2.27616,0 -4.28726,1.234086 -5.395072,3.064028 -0.574184,0.948468 -0.905709,2.057008 -0.905709,3.236753 0,1.348922 0.433424,2.604752 1.167433,3.63465 1.146504,1.608677 3.026365,2.666132 5.133348,2.666132 h 8.601563 c 3.455905,0 6.300781,-2.844877 6.300781,-6.300782 0,-3.455905 -2.844876,-6.300781 -6.300781,-6.300781 z m 0,4 h 8.601563 c 1.309095,0 2.300781,0.991687 2.300781,2.300781 0,1.309094 -0.991686,2.300782 -2.300781,2.300782 h -7.336911 -1.264652 c -1.309094,0 -2.300781,-0.991688 -2.300781,-2.300782 0,-0.874216 0.442253,-1.606881 1.125949,-1.997186 0.340104,-0.194157 0.739954,-0.303595 1.174832,-0.303595 z"
     id="path1053"
     sodipodi:nodetypes="ssssssssssssscssss" />
  <circle
     style="font-variation-settings:normal;vector-effect:none;fill:#480a2a;fill-opacity:1;stroke:none;stroke-width:2.50594;stroke-linecap:butt;stroke-linejoin:miter;stroke-miterlimit:4;stroke-dasharray:none;stroke-dashoffset:0;stroke-opacity:0.985824;stop-color:#000000"
     id="path21"
     cx="25.455845"
     cy="-1.8364665e-07"
     r="18"
     transform="rotate(45)" />
  <g
     transform="matrix(0.33974555,0.33974555,-0.33974555,0.33974555,-20.716867,7.413826)"
     id="g1110" />
  <path
     sodipodi:nodetypes="sscccccccccssssscccccsssssccccccccscccccscscscssccssccccccccccc"
     d="m 13.511545,7.7408596 c -1.060789,0 -1.923333,0.8914859 -1.923333,1.9871412 v 1.8598512 c 0.93856,0 1.807242,0.271645 2.564662,0.713275 v -1.995606 h 14.106618 v 11.54163 H 25.694504 V 20.907622 H 22.35286 c -0.07535,1.272683 -0.368214,2.451752 -0.825914,3.504191 h 7.373548 c 1.06079,0 1.923659,-0.891487 1.923659,-1.987141 V 9.7280008 c 0,-1.0956553 -0.862869,-1.987141 -1.923659,-1.9871412 z m 7.966145,3.8365744 v 0.750062 h 4.41084 v -0.750062 z m -9.889478,1.292749 c -2.1247847,0 -3.8473183,1.722532 -3.8473183,3.847318 0,2.124785 1.7225336,3.847319 3.8473183,3.847319 2.124785,0 3.846994,-1.722534 3.846994,-3.847319 0,-2.124786 -1.722209,-3.847318 -3.846994,-3.847318 z m 9.991374,0.695369 v 0.750061 h 4.556686 v -0.750061 z m -1.572068,0.07846 c -0.186507,0.0024 -0.34146,0.144512 -0.360056,0.330105 l -0.474973,4.712949 c -0.828452,0.130027 -1.423858,0.866266 -1.377716,1.703589 0.0058,0.105342 -0.05575,0.777378 -0.208677,1.456499 h -0.0765 c 0.02159,0.01887 0.04154,0.03941 0.06251,0.05893 -0.0133,0.05706 -0.02574,0.114309 -0.04037,0.170912 -0.13694,0.52965 -0.339832,1.071595 -0.519574,1.450964 -0.822639,-1.024379 -2.084634,-1.680801 -3.500611,-1.680801 -0.09578,0 -0.191527,0.01396 -0.2829,0.04362 -0.519374,0.168717 -1.065355,0.27704 -1.640433,0.27704 -0.575079,0 -1.12131,-0.108323 -1.641084,-0.27704 -0.091373,-0.02965 -0.1867969,-0.04362 -0.2825763,-0.04362 -2.4870643,0 -4.50187,2.023119 -4.4886456,4.513388 0.00562,1.052375 0.8708843,1.898593 1.9236583,1.898593 H 16.07654 c 0.134509,0 0.265952,-0.01407 0.392937,-0.04037 0.410398,0.06155 0.828839,-0.0354 1.170342,-0.271181 1.038306,-0.716876 1.465371,-1.621024 1.855945,-2.187352 0.607813,-0.88132 0.945335,-1.884388 1.198991,-2.865467 0.253657,-0.98108 0.408954,-1.838542 0.362009,-2.68479 -0.03786,-0.68352 -0.497904,-1.270928 -1.152438,-1.471474 l 0.472695,-4.691137 c 0.02018,-0.201445 -0.126716,-0.381128 -0.328152,-0.4014 -0.01373,-0.0014 -0.02753,-0.0021 -0.04134,-0.002 z m 1.470172,1.909661 v 0.750061 h 5.447383 v -0.750061 z"
     style="fill:#ffffff;stroke-width:0.0400751"
     id="path1269" />
</svg>
