<?xml version="1.0" encoding="UTF-8" standalone="no"?>
<svg
   xmlns:dc="http://purl.org/dc/elements/1.1/"
   xmlns:cc="http://creativecommons.org/ns#"
   xmlns:rdf="http://www.w3.org/1999/02/22-rdf-syntax-ns#"
   xmlns:svg="http://www.w3.org/2000/svg"
   xmlns="http://www.w3.org/2000/svg"
   width="36"
   height="36"
   viewBox="0 0 36 36"
   version="1.1"
   id="svg8">
  <defs
     id="defs2" />
  <metadata
     id="metadata5">
    <rdf:RDF>
      <cc:Work
         rdf:about="">
        <dc:format>image/svg+xml</dc:format>
        <dc:type
           rdf:resource="http://purl.org/dc/dcmitype/StillImage" />
        <dc:title></dc:title>
      </cc:Work>
    </rdf:RDF>
  </metadata>
  <g
     id="g913"
     transform="rotate(45,17.99952,17.982039)">
    <path
       d="M 14.480469,0.34765625 A 17.983263,17.983263 0 0 0 5.2851562,5.2675781 17.983263,17.983263 0 0 0 0.36132812,14.480469 H 9.0742188 A 9.5897236,9.5897236 0 0 1 11.21875,11.203125 9.5897236,9.5897236 0 0 1 14.480469,9.0625 Z m 7.039062,0 V 9.0625 a 9.5897236,9.5897236 0 0 1 3.259766,2.140625 9.5897236,9.5897236 0 0 1 2.146484,3.277344 h 8.710938 A 17.983263,17.983263 0 0 0 30.714844,5.2675781 17.983263,17.983263 0 0 0 21.519531,0.34765625 Z M 0.36914062,21.519531 a 17.983263,17.983263 0 0 0 4.91601558,9.179688 17.983263,17.983263 0 0 0 9.1953128,4.917969 V 26.902344 A 9.5897236,9.5897236 0 0 1 11.21875,24.763672 9.5897236,9.5897236 0 0 1 9.0878906,21.519531 Z m 26.54296838,0 a 9.5897236,9.5897236 0 0 1 -2.132812,3.244141 9.5897236,9.5897236 0 0 1 -3.259766,2.138672 v 8.714844 a 17.983263,17.983263 0 0 0 9.195313,-4.917969 17.983263,17.983263 0 0 0 4.916015,-9.179688 z"
       style="fill:#480a2a;fill-opacity:1;stroke:none;stroke-width:2.50361;stroke-miterlimit:4;stroke-dasharray:none;stroke-opacity:0.985824"
       id="path21" />
    <path
       d="M 17.783203,0 A 17.983263,17.983263 0 0 0 14.480469,0.34765625 V 9.0625 a 9.5897236,9.5897236 0 0 1 3.539062,-0.6699219 9.5897236,9.5897236 0 0 1 3.5,0.6699219 V 0.34765625 A 17.983263,17.983263 0 0 0 18.138672,0 17.983263,17.983263 0 0 0 17.783203,0 Z M 0.36132812,14.480469 a 17.983263,17.983263 0 0 0 0.007813,7.039062 H 9.0878906 a 9.5897236,9.5897236 0 0 1 -0.013672,-7.039062 z m 26.56445288,0 a 9.5897236,9.5897236 0 0 1 -0.01367,7.039062 h 8.71875 a 17.983263,17.983263 0 0 0 0.0059,-7.039062 z M 14.480469,26.902344 v 8.714844 a 17.983263,17.983263 0 0 0 7.039062,0 v -8.714844 a 9.5897236,9.5897236 0 0 1 -7.039062,0 z"
       style="fill:#cfd418;fill-opacity:1;stroke-width:1.74912;stroke-opacity:0.985824;stop-color:#000000"
       id="path903" />
  </g>
</svg>
