<?xml version="1.0" encoding="UTF-8" standalone="no"?>
<svg
   xmlns:dc="http://purl.org/dc/elements/1.1/"
   xmlns:cc="http://creativecommons.org/ns#"
   xmlns:rdf="http://www.w3.org/1999/02/22-rdf-syntax-ns#"
   xmlns:svg="http://www.w3.org/2000/svg"
   xmlns="http://www.w3.org/2000/svg"
   xmlns:sodipodi="http://sodipodi.sourceforge.net/DTD/sodipodi-0.dtd"
   xmlns:inkscape="http://www.inkscape.org/namespaces/inkscape"
   inkscape:version="1.0 (6e3e5246a0, 2020-05-07)"
   sodipodi:docname="close.svg"
   width="26"
   height="26"
   viewBox="0 0 26 26"
   version="1.1"
   id="svg8">
  <sodipodi:namedview
     inkscape:snap-page="true"
     inkscape:current-layer="svg8"
     inkscape:window-maximized="1"
     inkscape:window-y="0"
     inkscape:window-x="0"
     inkscape:cy="13"
     inkscape:cx="13"
     inkscape:zoom="31.807692"
     fit-margin-bottom="0"
     fit-margin-right="0"
     fit-margin-left="0"
     fit-margin-top="0"
     scale-x="1"
     showgrid="false"
     id="namedview838"
     inkscape:window-height="1016"
     inkscape:window-width="1920"
     inkscape:pageshadow="2"
     inkscape:pageopacity="0"
     guidetolerance="10"
     gridtolerance="10"
     objecttolerance="10"
     borderopacity="1"
     bordercolor="#666666"
     pagecolor="#ffffff"
     inkscape:document-rotation="0" />
  <defs
     id="defs2" />
  <metadata
     id="metadata5">
    <rdf:RDF>
      <cc:Work
         rdf:about="">
        <dc:format>image/svg+xml</dc:format>
        <dc:type
           rdf:resource="http://purl.org/dc/dcmitype/StillImage" />
        <dc:title></dc:title>
      </cc:Work>
    </rdf:RDF>
  </metadata>
  <path
     id="path21"
     style="fill:#ddd6dd;fill-opacity:1;stroke:none;stroke-width:1.80954;stroke-miterlimit:4;stroke-dasharray:none;stroke-opacity:0.985824"
     d="M 22.053638,3.6712091 A 12.997807,12.997807 0 0 0 13,1.850023e-7 12.997807,12.997807 0 0 0 1.8500231e-7,13 12.997807,12.997807 0 0 0 13,25.999999 12.997807,12.997807 0 0 0 26,13 12.997807,12.997807 0 0 0 22.053638,3.6712091 Z m -5.921426,3.2226732 2.529139,2.5291387 -3.279212,3.279212 3.279211,3.279211 -2.529138,2.529138 L 12.853001,15.231371 9.5737893,18.510582 7.0446508,15.981444 10.323862,12.702232 7.0446508,9.423021 9.5737893,6.8938825 12.853,10.173094 Z" />
</svg>
