<?xml version="1.0" encoding="UTF-8" standalone="no"?>
<svg
   xmlns:dc="http://purl.org/dc/elements/1.1/"
   xmlns:cc="http://creativecommons.org/ns#"
   xmlns:rdf="http://www.w3.org/1999/02/22-rdf-syntax-ns#"
   xmlns:svg="http://www.w3.org/2000/svg"
   xmlns="http://www.w3.org/2000/svg"
   xmlns:sodipodi="http://sodipodi.sourceforge.net/DTD/sodipodi-0.dtd"
   xmlns:inkscape="http://www.inkscape.org/namespaces/inkscape"
   inkscape:version="1.0 (6e3e5246a0, 2020-05-07)"
   sodipodi:docname="programs.svg"
   width="26.999996"
   height="26.999996"
   viewBox="0 0 26.999996 26.999996"
   version="1.1"
   id="svg8">
  <sodipodi:namedview
     inkscape:snap-bbox-midpoints="true"
     inkscape:snap-bbox-edge-midpoints="true"
     inkscape:bbox-nodes="true"
     inkscape:bbox-paths="true"
     inkscape:snap-bbox="true"
     inkscape:snap-page="true"
     inkscape:current-layer="svg8"
     inkscape:window-maximized="1"
     inkscape:window-y="0"
     inkscape:window-x="0"
     inkscape:cy="29.920309"
     inkscape:cx="-1.1652417"
     inkscape:zoom="8.121907"
     fit-margin-bottom="0"
     fit-margin-right="0"
     fit-margin-left="0"
     fit-margin-top="0"
     scale-x="1"
     showgrid="false"
     id="namedview838"
     inkscape:window-height="1016"
     inkscape:window-width="1920"
     inkscape:pageshadow="2"
     inkscape:pageopacity="0"
     guidetolerance="10"
     gridtolerance="10"
     objecttolerance="10"
     borderopacity="1"
     bordercolor="#666666"
     pagecolor="#ffffff"
     inkscape:document-rotation="0" />
  <defs
     id="defs2" />
  <metadata
     id="metadata5">
    <rdf:RDF>
      <cc:Work
         rdf:about="">
        <dc:format>image/svg+xml</dc:format>
        <dc:type
           rdf:resource="http://purl.org/dc/dcmitype/StillImage" />
        <dc:title></dc:title>
      </cc:Work>
    </rdf:RDF>
  </metadata>
  <path
     d="M 13.025901,0.0022078 C 10.449739,0.09270423 11.429369,2.7476918 9.083937,3.8171545 6.7385042,4.8866174 5.3783528,2.4056405 3.6207209,4.2912535 1.8630895,6.1768664 4.4328743,7.3604512 3.5306273,9.7751473 2.6283802,12.189843 -0.08828865,11.397936 0.0022078,13.974099 c 0.0904964,2.576163 2.745484,1.596532 3.8149467,3.941964 1.0694629,2.345433 -1.411514,3.705584 0.474099,5.463216 1.8856129,1.757631 3.0691977,-0.812153 5.4838938,0.09009 2.4146957,0.902247 1.6227887,3.618915 4.1989517,3.528419 2.576163,-0.0905 1.596532,-2.745484 3.941964,-3.814946 2.345433,-1.069463 3.705584,1.411513 5.463216,-0.4741 1.757631,-1.885613 -0.812153,-3.069197 0.09009,-5.483893 0.902247,-2.414696 3.618915,-1.622788 3.528419,-4.198952 -0.09049,-2.576158 -2.74548,-1.596528 -3.814942,-3.94196 C 22.113383,6.7385042 24.594359,5.3783528 22.708746,3.6207209 20.823133,1.8630895 19.639549,4.4328743 17.224853,3.5306273 14.810157,2.6283802 15.602065,-0.08828865 13.025901,0.0022078 Z m 0.4933,8.96062 a 4.5371723,4.5371723 0 0 1 3.188722,1.3292492 4.5371723,4.5371723 0 0 1 0,6.415846 4.5371723,4.5371723 0 0 1 -6.415846,0 4.5371723,4.5371723 0 0 1 0,-6.415846 4.5371723,4.5371723 0 0 1 3.227124,-1.3292492 z"
     style="font-variation-settings:normal;opacity:1;vector-effect:none;fill:#ddd6dd;fill-opacity:1;stroke:none;stroke-width:1.89498;stroke-linecap:butt;stroke-linejoin:miter;stroke-miterlimit:4;stroke-dasharray:none;stroke-dashoffset:0;stroke-opacity:0.985824;stop-color:#000000;stop-opacity:1"
     id="path848" />
</svg>
