<?xml version="1.0" encoding="UTF-8" standalone="no"?>
<svg
   xmlns:dc="http://purl.org/dc/elements/1.1/"
   xmlns:cc="http://creativecommons.org/ns#"
   xmlns:rdf="http://www.w3.org/1999/02/22-rdf-syntax-ns#"
   xmlns:svg="http://www.w3.org/2000/svg"
   xmlns="http://www.w3.org/2000/svg"
   id="svg8"
   version="1.1"
   viewBox="0 0 36 36"
   height="36"
   width="36">
  <defs
     id="defs2" />
  <metadata
     id="metadata5">
    <rdf:RDF>
      <cc:Work
         rdf:about="">
        <dc:format>image/svg+xml</dc:format>
        <dc:type
           rdf:resource="http://purl.org/dc/dcmitype/StillImage" />
        <dc:title></dc:title>
      </cc:Work>
    </rdf:RDF>
  </metadata>
  <circle
     style="fill:#480a2a;fill-opacity:1;stroke:none;stroke-width:2.50594;stroke-miterlimit:4;stroke-dasharray:none;stroke-opacity:0.985824"
     id="path21"
     cx="25.455849"
     cy="8.0532036e-06"
     r="18"
     transform="rotate(45)" />
  <path
     d="M 18.353516 5.8300781 C 14.761727 5.7826986 11.21719 7.3654987 8.8710938 10.341797 L 11.720703 12.587891 C 14.214004 9.424846 18.59564 8.5316004 22.128906 10.464844 C 25.662172 12.398086 27.270639 16.569688 25.951172 20.375 C 24.631705 24.180313 20.786077 26.460044 16.814453 25.791016 C 13.140945 25.172205 10.399389 22.203269 10.007812 18.574219 L 13.005859 18.574219 L 8.4003906 13.023438 L 3.7949219 18.574219 L 6.3671875 18.574219 C 6.7744341 23.958823 10.813176 28.459876 16.210938 29.369141 C 21.905626 30.328424 27.48895 27.018724 29.380859 21.5625 C 31.272769 16.106276 28.937245 10.051265 23.871094 7.2792969 C 22.604556 6.5863047 21.257047 6.148457 19.892578 5.9511719 C 19.380903 5.87719 18.866628 5.8368466 18.353516 5.8300781 z "
     style="fill:#ffffff;stroke:none;stroke-width:0.219878px;stroke-linecap:butt;stroke-linejoin:miter;stroke-opacity:1"
     id="path4536" />
</svg>
