<?xml version="1.0" encoding="UTF-8" standalone="no"?>
<svg
   xmlns:dc="http://purl.org/dc/elements/1.1/"
   xmlns:cc="http://creativecommons.org/ns#"
   xmlns:rdf="http://www.w3.org/1999/02/22-rdf-syntax-ns#"
   xmlns:svg="http://www.w3.org/2000/svg"
   xmlns="http://www.w3.org/2000/svg"
   xmlns:sodipodi="http://sodipodi.sourceforge.net/DTD/sodipodi-0.dtd"
   xmlns:inkscape="http://www.inkscape.org/namespaces/inkscape"
   inkscape:version="1.0 (6e3e5246a0, 2020-05-07)"
   sodipodi:docname="save.svg"
   width="36"
   height="36"
   viewBox="0 0 36 36"
   version="1.1"
   id="svg8">
  <sodipodi:namedview
     inkscape:current-layer="svg8"
     inkscape:window-maximized="1"
     inkscape:window-y="0"
     inkscape:window-x="0"
     inkscape:cy="18"
     inkscape:cx="18"
     inkscape:zoom="22.972222"
     inkscape:guide-bbox="true"
     showguides="true"
     inkscape:snap-page="true"
     showgrid="false"
     id="namedview7"
     inkscape:window-height="1016"
     inkscape:window-width="1920"
     inkscape:pageshadow="2"
     inkscape:pageopacity="0"
     guidetolerance="10"
     gridtolerance="10"
     objecttolerance="10"
     borderopacity="1"
     bordercolor="#666666"
     pagecolor="#ffffff" />
  <defs
     id="defs2" />
  <metadata
     id="metadata5">
    <rdf:RDF>
      <cc:Work
         rdf:about="">
        <dc:format>image/svg+xml</dc:format>
        <dc:type
           rdf:resource="http://purl.org/dc/dcmitype/StillImage" />
        <dc:title />
      </cc:Work>
    </rdf:RDF>
  </metadata>
  <circle
     transform="rotate(45)"
     r="18"
     cy="8.0532036e-06"
     cx="25.455849"
     id="path21"
     style="fill:#480a2a;fill-opacity:1;stroke:none;stroke-width:2.50594;stroke-miterlimit:4;stroke-dasharray:none;stroke-opacity:0.985824;font-variation-settings:normal;opacity:1;vector-effect:none;stroke-linecap:butt;stroke-linejoin:miter;stroke-dashoffset:0;stop-color:#000000;stop-opacity:1" />
  <path
     id="path899"
     d="M 21.599609 4.9550781 A 1.959 1.959 0 0 0 19.712891 6.3125 A 1.959 1.959 0 0 0 20.974609 8.7792969 C 25.363238 10.195182 28.134279 14.474779 27.630859 19.058594 C 27.127439 23.642409 23.493661 27.218781 18.902344 27.648438 C 14.311027 28.078094 10.077563 25.236998 8.7324219 20.826172 A 1.959 1.959 0 0 0 6.2871094 19.523438 A 1.959 1.959 0 0 0 4.984375 21.96875 C 6.8651654 28.136014 12.847951 32.149578 19.267578 31.548828 C 25.687206 30.948078 30.823456 25.895467 31.527344 19.486328 C 32.231231 13.07719 28.313961 7.0285335 22.177734 5.0488281 A 1.959 1.959 0 0 0 21.599609 4.9550781 z M 14.222656 5.0097656 A 1.959 1.959 0 0 0 13.628906 5.1132812 C 9.7066128 6.4435947 6.6010187 9.4920584 5.1972656 13.388672 A 1.959 1.959 0 0 0 6.3769531 15.894531 A 1.959 1.959 0 0 0 8.8828125 14.716797 C 9.8832406 11.939755 12.093328 9.7723078 14.888672 8.8242188 A 1.959 1.959 0 0 0 16.113281 6.3398438 A 1.959 1.959 0 0 0 14.222656 5.0097656 z "
     style="color:#000000;font-style:normal;font-variant:normal;font-weight:normal;font-stretch:normal;font-size:medium;line-height:normal;font-family:sans-serif;font-variant-ligatures:normal;font-variant-position:normal;font-variant-caps:normal;font-variant-numeric:normal;font-variant-alternates:normal;font-variant-east-asian:normal;font-feature-settings:normal;font-variation-settings:normal;text-indent:0;text-align:start;text-decoration:none;text-decoration-line:none;text-decoration-style:solid;text-decoration-color:#000000;letter-spacing:normal;word-spacing:normal;text-transform:none;writing-mode:lr-tb;direction:ltr;text-orientation:mixed;dominant-baseline:auto;baseline-shift:baseline;text-anchor:start;white-space:normal;shape-padding:0;shape-margin:0;inline-size:0;clip-rule:nonzero;display:inline;overflow:visible;visibility:visible;isolation:auto;mix-blend-mode:normal;color-interpolation:sRGB;color-interpolation-filters:linearRGB;solid-color:#000000;solid-opacity:1;vector-effect:none;fill:#ffffff;fill-opacity:0.985824;fill-rule:nonzero;stroke:none;stroke-width:3.918;stroke-linecap:round;stroke-linejoin:miter;stroke-miterlimit:4;stroke-dasharray:none;stroke-dashoffset:0;stroke-opacity:1;color-rendering:auto;image-rendering:auto;shape-rendering:auto;text-rendering:auto;enable-background:accumulate;stop-color:#000000;stop-opacity:1;opacity:1" />
</svg>
