<?xml version="1.0" encoding="UTF-8" standalone="no"?>
<svg
   xmlns:dc="http://purl.org/dc/elements/1.1/"
   xmlns:cc="http://creativecommons.org/ns#"
   xmlns:rdf="http://www.w3.org/1999/02/22-rdf-syntax-ns#"
   xmlns:svg="http://www.w3.org/2000/svg"
   xmlns="http://www.w3.org/2000/svg"
   xmlns:sodipodi="http://sodipodi.sourceforge.net/DTD/sodipodi-0.dtd"
   xmlns:inkscape="http://www.inkscape.org/namespaces/inkscape"
   inkscape:version="1.0 (6e3e5246a0, 2020-05-07)"
   sodipodi:docname="project-switch-editor.svg"
   width="36"
   height="36"
   viewBox="0 0 36 36"
   version="1.1"
   id="svg8">
  <sodipodi:namedview
     inkscape:snap-bbox-edge-midpoints="true"
     inkscape:bbox-nodes="true"
     inkscape:snap-midpoints="true"
     inkscape:snap-smooth-nodes="true"
     inkscape:current-layer="svg8"
     inkscape:window-maximized="1"
     inkscape:window-y="0"
     inkscape:window-x="0"
     inkscape:cy="18"
     inkscape:cx="18"
     inkscape:zoom="22.972222"
     inkscape:guide-bbox="true"
     showguides="true"
     inkscape:snap-page="true"
     showgrid="false"
     id="namedview7"
     inkscape:window-height="1016"
     inkscape:window-width="1920"
     inkscape:pageshadow="2"
     inkscape:pageopacity="0"
     guidetolerance="10"
     gridtolerance="10"
     objecttolerance="10"
     borderopacity="1"
     bordercolor="#666666"
     pagecolor="#ffffff"
     inkscape:document-rotation="0"
     inkscape:snap-intersection-paths="true"
     inkscape:snap-bbox="true"
     inkscape:bbox-paths="true"
     fit-margin-top="0"
     fit-margin-left="0"
     fit-margin-right="0"
     fit-margin-bottom="0"
     inkscape:snap-bbox-midpoints="false"
     inkscape:object-paths="true"
     inkscape:snap-global="true" />
  <defs
     id="defs2" />
  <metadata
     id="metadata5">
    <rdf:RDF>
      <cc:Work
         rdf:about="">
        <dc:format>image/svg+xml</dc:format>
        <dc:type
           rdf:resource="http://purl.org/dc/dcmitype/StillImage" />
        <dc:title></dc:title>
      </cc:Work>
    </rdf:RDF>
  </metadata>
  <circle
     transform="rotate(45)"
     r="18"
     cy="-3.7821735e-07"
     cx="25.455845"
     id="path21"
     style="font-variation-settings:normal;vector-effect:none;fill:#480a2a;fill-opacity:1;stroke:none;stroke-width:2.50594;stroke-linecap:butt;stroke-linejoin:miter;stroke-miterlimit:4;stroke-dasharray:none;stroke-dashoffset:0;stroke-opacity:0.985824;stop-color:#000000" />
  <g
     id="g1110"
     transform="matrix(0.33974555,0.33974555,-0.33974555,0.33974555,-20.716867,7.413826)" />
  <path
     sodipodi:nodetypes="ccccccccccccc"
     id="path857"
     d="M 7.8114042,9.7539062 V 28.128906 H 26.164062 v -10.65625 c -4.1e-4,-0.406177 -0.330151,-0.735044 -0.736328,-0.734375 -0.405414,4.1e-4 -0.733965,0.328961 -0.734375,0.734375 v 8.447476 H 9.2821073 V 11.222656 h 9.7374237 c 0.405414,-4.1e-4 0.733965,-0.328961 0.734375,-0.734375 -4.1e-4,-0.405414 -0.328961,-0.7339652 -0.734375,-0.7343748 z"
     style="color:#000000;font-style:normal;font-variant:normal;font-weight:normal;font-stretch:normal;font-size:medium;line-height:normal;font-family:sans-serif;font-variant-ligatures:normal;font-variant-position:normal;font-variant-caps:normal;font-variant-numeric:normal;font-variant-alternates:normal;font-variant-east-asian:normal;font-feature-settings:normal;font-variation-settings:normal;text-indent:0;text-align:start;text-decoration:none;text-decoration-line:none;text-decoration-style:solid;text-decoration-color:#000000;letter-spacing:normal;word-spacing:normal;text-transform:none;writing-mode:lr-tb;direction:ltr;text-orientation:mixed;dominant-baseline:auto;baseline-shift:baseline;text-anchor:start;white-space:normal;shape-padding:0;shape-margin:0;inline-size:0;clip-rule:nonzero;display:inline;overflow:visible;visibility:visible;opacity:1;isolation:auto;mix-blend-mode:normal;color-interpolation:sRGB;color-interpolation-filters:linearRGB;solid-color:#000000;solid-opacity:1;vector-effect:none;fill:#ffffff;fill-opacity:1;fill-rule:nonzero;stroke:none;stroke-width:1.47024;stroke-linecap:round;stroke-linejoin:miter;stroke-miterlimit:4;stroke-dasharray:none;stroke-dashoffset:0;stroke-opacity:1;color-rendering:auto;image-rendering:auto;shape-rendering:auto;text-rendering:auto;enable-background:accumulate;stop-color:#000000;stop-opacity:1" />
  <path
     d="m 16.008186,17.706976 -0.472325,0.472326 2.136513,2.136512 0.472325,-0.472325 z M 27.475193,8.3751009 c -0.707064,-0.7070643 -1.863102,-0.7084455 -2.570167,-0.00138 -0.707064,0.7070644 -0.707064,1.8644841 0,2.5715481 0.642127,0.642128 1.625173,0.622236 2.335386,0.09806 a 0.33366349,0.33366349 0 0 0 0.236165,-0.09805 0.33366349,0.33366349 0 0 0 0.09529,-0.233403 c 0.526374,-0.710347 0.546285,-1.6938078 -0.09668,-2.3367666 z m -0.470944,0.4709438 c 0.452047,0.4520461 0.452047,1.1748523 10e-7,1.6268983 -0.452047,0.452046 -1.174853,0.452046 -1.626899,0 -0.452046,-0.452047 -0.452046,-1.1748523 0,-1.6268985 0.452046,-0.4520462 1.174852,-0.4520459 1.626898,2e-7 z m -0.433655,3.0438733 -0.816211,0.0069 c -0.47929,0.0043 -0.939698,-0.18337 -1.278869,-0.522044 -0.338096,-0.338602 -0.525707,-0.797622 -0.522043,-1.276106 l 0.0055,-0.8148305 -8.499092,8.4990925 -0.524806,3.132262 3.133643,-0.523425 z m -1.385211,0.440561 -7.437051,7.437051 -2.001167,0.3356 0.336981,-1.999787 7.435669,-7.435669 c 0.108539,0.420453 0.171258,0.866848 0.483374,1.179431 0.313313,0.312853 0.760641,0.375095 1.182194,0.483374 z"
     style="color:#000000;font-style:normal;font-variant:normal;font-weight:normal;font-stretch:normal;font-size:medium;line-height:normal;font-family:sans-serif;font-variant-ligatures:normal;font-variant-position:normal;font-variant-caps:normal;font-variant-numeric:normal;font-variant-alternates:normal;font-variant-east-asian:normal;font-feature-settings:normal;font-variation-settings:normal;text-indent:0;text-align:start;text-decoration:none;text-decoration-line:none;text-decoration-style:solid;text-decoration-color:#000000;letter-spacing:normal;word-spacing:normal;text-transform:none;writing-mode:lr-tb;direction:ltr;text-orientation:mixed;dominant-baseline:auto;baseline-shift:baseline;text-anchor:start;white-space:normal;shape-padding:0;shape-margin:0;inline-size:0;clip-rule:nonzero;display:inline;overflow:visible;visibility:visible;opacity:1;isolation:auto;mix-blend-mode:normal;color-interpolation:sRGB;color-interpolation-filters:linearRGB;solid-color:#000000;solid-opacity:1;vector-effect:none;fill:#ffffff;fill-opacity:1;fill-rule:nonzero;stroke:none;stroke-width:0.667327;stroke-linecap:butt;stroke-linejoin:miter;stroke-miterlimit:4;stroke-dasharray:none;stroke-dashoffset:0;stroke-opacity:1;color-rendering:auto;image-rendering:auto;shape-rendering:auto;text-rendering:auto;enable-background:accumulate;stop-color:#000000;stop-opacity:1"
     id="path1538" />
</svg>
