<svg id="Layer_1" data-name="Layer 1" xmlns="http://www.w3.org/2000/svg" viewBox="0 0 72 35.62"><defs><style>.cls-1,.cls-2{fill:#fff;}.cls-1{fill-rule:evenodd;}</style></defs><title>SAP_grad_R_pref</title><path class="cls-1" d="M416.41,281.71h-1.56v5.71h1.56c2.08,0,3.74-.69,3.74-2.89S418.49,281.71,416.41,281.71Z" transform="translate(-373.26 -270.38)"/><path class="cls-1" d="M373.26,270.38V306h36.39l35.61-35.62Zm43.87,21.92h-2.29v6.8h-10.5l-1-3.25a11.9,11.9,0,0,1-3.69.57,11.75,11.75,0,0,1-3.78-.6l-1.08,3.29h-6.44l.71-1.9-.26.22a9.68,9.68,0,0,1-6.1,2h-.37a16.37,16.37,0,0,1-8-2.13l2.19-4.35a9.8,9.8,0,0,0,5.87,1.67,3.12,3.12,0,0,0,2.28-.72,1.67,1.67,0,0,0,.47-1.11c0-1.13-1.59-1.66-3.56-2.27a16.56,16.56,0,0,1-4.82-2.2,5.55,5.55,0,0,1-2.43-4.95,6,6,0,0,1,1.7-4.13,9.75,9.75,0,0,1,7.09-2.59h0a19.16,19.16,0,0,1,8,1.9l-2.46,4.29a11.59,11.59,0,0,0-5.19-1.4c-2.12-.11-3.19.65-3.21,1.46,0,1,2,1.9,3.92,2.51,2.89.92,6.57,2.15,7.13,5.7l5.29-14.09h6.14l6.19,16.85V277.07H416c6.77,0,10,2.42,10,7.68C425.95,289.48,422.67,292.3,417.14,292.3Z" transform="translate(-373.26 -270.38)"/><path class="cls-1" d="M399.59,284l-2.25,7.09a6.47,6.47,0,0,0,2.27.4,6.66,6.66,0,0,0,2.23-.38L399.63,284Z" transform="translate(-373.26 -270.38)"/><path class="cls-2" d="M418.28,303.66a1.87,1.87,0,1,1,1.88,1.93A1.87,1.87,0,0,1,418.28,303.66Zm1.88,2.31a2.3,2.3,0,1,0-2.34-2.31A2.3,2.3,0,0,0,420.16,306Zm-.49-2.13h.46l.7,1.15h.46l-.76-1.17a.69.69,0,0,0,.69-.73c0-.52-.31-.75-.94-.75h-1V305h.4Zm0-.34v-.82h.55c.28,0,.57.06.57.39s-.3.43-.64.43Z" transform="translate(-373.26 -270.38)"/></svg>