<?xml version="1.0" encoding="utf-8"?>
<!-- Generator: Adobe Illustrator 21.0.0, SVG Export Plug-In . SVG Version: 6.00 Build 0)  -->
<svg version="1.1" id="Layer_1" xmlns="http://www.w3.org/2000/svg" xmlns:xlink="http://www.w3.org/1999/xlink" x="0px" y="0px"
	 viewBox="0 0 24 24" style="enable-background:new 0 0 24 24;" xml:space="preserve">
<style type="text/css">
	.st0{fill:none;stroke:#303C42;stroke-linecap:round;stroke-linejoin:round;stroke-miterlimit:10;}
	.st1{fill:none;stroke:#D0D717;stroke-linecap:round;stroke-linejoin:round;stroke-miterlimit:10;}
</style>
<g>
	<polyline class="st0" points="23.5,20.5 23.5,0.5 0.5,0.5 0.5,8.5 6.5,8.5 6.5,6.5 	"/>
	<polyline class="st0" points="23.5,23.5 0.5,23.5 0.5,11.5 	"/>
	<polyline class="st0" points="3.5,5.5 3.5,3.5 11.5,3.5 	"/>
	<polyline class="st0" points="9.5,3.5 9.5,8.5 17.5,8.5 	"/>
	<line class="st0" x1="20.5" y1="3.5" x2="20.5" y2="14.5"/>
	<polyline class="st0" points="0.5,17.5 6.5,17.5 6.5,14.5 9.5,14.5 9.5,20.5 	"/>
	<line class="st0" x1="4.5" y1="20.5" x2="11.5" y2="20.5"/>
	<polyline class="st0" points="14.5,8.5 14.5,20.5 17.5,20.5 	"/>
	<polyline class="st0" points="20.5,23.5 20.5,17.5 17.5,17.5 17.5,11.5 20.5,11.5 	"/>
	<line class="st0" x1="3.5" y1="14.5" x2="3.5" y2="8.5"/>
	<line class="st0" x1="3.5" y1="11.5" x2="11.5" y2="11.5"/>
	<line class="st0" x1="20.5" y1="5.5" x2="15.5" y2="5.5"/>
	<line class="st0" x1="17.5" y1="0.5" x2="17.5" y2="2.5"/>
	<line class="st0" x1="14.5" y1="17.5" x2="12.5" y2="17.5"/>
</g>
<polyline class="st1" points="0.5,10 1.9,10 1.9,15.8 5,15.8 5,13.1 13,13.1 13,10 8,10 8,5.1 5,5.1 5,7 2,7 2,2.1 15.5,2.1 15.5,4 
	19.2,4 19.2,2.1 22,2.1 22,22.2 23.5,22.2 "/>
</svg>
