<?xml version="1.0" encoding="UTF-8" standalone="no"?>
<svg
   xmlns:dc="http://purl.org/dc/elements/1.1/"
   xmlns:cc="http://creativecommons.org/ns#"
   xmlns:rdf="http://www.w3.org/1999/02/22-rdf-syntax-ns#"
   xmlns:svg="http://www.w3.org/2000/svg"
   xmlns="http://www.w3.org/2000/svg"
   xmlns:sodipodi="http://sodipodi.sourceforge.net/DTD/sodipodi-0.dtd"
   xmlns:inkscape="http://www.inkscape.org/namespaces/inkscape"
   inkscape:version="1.0 (6e3e5246a0, 2020-05-07)"
   sodipodi:docname="favicon-prod.svg"
   id="svg18"
   version="1.1"
   viewBox="0 0 42.56 42.56">
  <metadata
     id="metadata22">
    <rdf:RDF>
      <cc:Work
         rdf:about="">
        <dc:format>image/svg+xml</dc:format>
        <dc:type
           rdf:resource="http://purl.org/dc/dcmitype/StillImage" />
        <dc:title>logo-small</dc:title>
      </cc:Work>
    </rdf:RDF>
  </metadata>
  <sodipodi:namedview
     inkscape:current-layer="svg18"
     inkscape:window-maximized="1"
     inkscape:window-y="0"
     inkscape:window-x="0"
     inkscape:cy="21.280001"
     inkscape:cx="21.280001"
     inkscape:zoom="18.843984"
     showgrid="false"
     id="namedview20"
     inkscape:window-height="1016"
     inkscape:window-width="1920"
     inkscape:pageshadow="2"
     inkscape:pageopacity="0"
     guidetolerance="10"
     gridtolerance="10"
     objecttolerance="10"
     borderopacity="1"
     bordercolor="#666666"
     pagecolor="#ffffff" />
  <defs
     id="defs4">
    <style
       id="style2">.cls-1{fill:#e32c20;}.cls-2{fill:#fff;}</style>
  </defs>
  <title
     id="title6">logo-small</title>
  <g
     data-name="Calque 2"
     id="Calque_2">
    <g
       data-name="Calque 1"
       id="Calque_1-2">
      <path
         id="path8"
         d="M42.56,21.28v0h0A21.28,21.28,0,0,0,0,21.24H0v.07H0a21.28,21.28,0,0,0,42.56,0h0Z"
         class="cls-1" />
      <polygon
         id="polygon10"
         points="21.28 0 21.28 0 0 21.28 21.28 42.56 21.28 42.56 42.56 21.28 21.28 0"
         class="cls-2" />
      <path
         id="path12"
         d="M35.61,14.36l-6.92,6.94,7,6.89H32L26.9,23.09l-.38.38V28.2H24V14.36h2.53v5.51L32,14.36Z"
         class="cls-1" />
      <path
         id="path14"
         d="M20.75,21.27a6.69,6.69,0,0,1-2,4.89,6.61,6.61,0,0,1-4.88,2L7,28.2V14.37h6.91a6.53,6.53,0,0,1,4.88,2A6.72,6.72,0,0,1,20.75,21.27Zm-2.52,0A4.27,4.27,0,0,0,17,18.17a4.18,4.18,0,0,0-3.09-1.29H9.48v8.78h4.38a4.35,4.35,0,0,0,4.36-4.38Z"
         class="cls-1" />
    </g>
  </g>
</svg>
