<?xml version="1.0" encoding="UTF-8" standalone="no"?>
<svg
   xmlns:dc="http://purl.org/dc/elements/1.1/"
   xmlns:cc="http://creativecommons.org/ns#"
   xmlns:rdf="http://www.w3.org/1999/02/22-rdf-syntax-ns#"
   xmlns:svg="http://www.w3.org/2000/svg"
   xmlns="http://www.w3.org/2000/svg"
   xmlns:sodipodi="http://sodipodi.sourceforge.net/DTD/sodipodi-0.dtd"
   xmlns:inkscape="http://www.inkscape.org/namespaces/inkscape"
   inkscape:export-ydpi="1155.7848"
   inkscape:export-xdpi="1155.7848"
   inkscape:export-filename="/home/taminio/Documents/developpement/declick/declick-master/client/src/assets/images/icons/favicon-qa.png"
   inkscape:version="1.0 (6e3e5246a0, 2020-05-07)"
   sodipodi:docname="favicon-qa.svg"
   id="svg18"
   version="1.1"
   viewBox="0 0 42.56 42.56">
  <metadata
     id="metadata22">
    <rdf:RDF>
      <cc:Work
         rdf:about="">
        <dc:format>image/svg+xml</dc:format>
        <dc:type
           rdf:resource="http://purl.org/dc/dcmitype/StillImage" />
        <dc:title>logo-small</dc:title>
      </cc:Work>
    </rdf:RDF>
  </metadata>
  <sodipodi:namedview
     inkscape:current-layer="svg18"
     inkscape:window-maximized="1"
     inkscape:window-y="0"
     inkscape:window-x="0"
     inkscape:cy="21.280001"
     inkscape:cx="21.280001"
     inkscape:zoom="19.43139"
     showgrid="false"
     id="namedview20"
     inkscape:window-height="1016"
     inkscape:window-width="1920"
     inkscape:pageshadow="2"
     inkscape:pageopacity="0"
     guidetolerance="10"
     gridtolerance="10"
     objecttolerance="10"
     borderopacity="1"
     bordercolor="#666666"
     pagecolor="#ffffff" />
  <defs
     id="defs4">
    <style
       id="style2">.cls-1{fill:#e32c20;}.cls-2{fill:#fff;}</style>
  </defs>
  <title
     id="title6">logo-small</title>
  <path
     style="fill:#d1d718;fill-opacity:1"
     id="path8"
     d="m 42.56,21.28 v 0 0 A 21.280009,21.280009 0 0 0 0,21.24 v 0 0.07 0 a 21.28,21.28 0 0 0 42.56,0 v 0 z"
     class="cls-1" />
  <polygon
     style="font-variation-settings:normal;opacity:1;vector-effect:none;fill:#e32c20;fill-opacity:1;stroke-width:1;stroke-linecap:butt;stroke-linejoin:miter;stroke-miterlimit:4;stroke-dasharray:none;stroke-dashoffset:0;stroke-opacity:1;stop-color:#000000;stop-opacity:1"
     id="polygon10"
     points="21.28,42.56 42.56,21.28 21.28,0 0,21.28 21.28,42.56 "
     class="cls-2" />
  <path
     style="fill:#ffffff"
     id="path12"
     d="m 35.61,14.36 -6.92,6.94 7,6.89 H 32 l -5.1,-5.1 -0.38,0.38 V 28.2 H 24 V 14.36 h 2.53 v 5.51 L 32,14.36 Z"
     class="cls-1" />
  <path
     style="fill:#ffffff"
     id="path14"
     d="m 20.75,21.27 a 6.69,6.69 0 0 1 -2,4.89 6.61,6.61 0 0 1 -4.88,2 L 7,28.2 V 14.37 h 6.91 a 6.53,6.53 0 0 1 4.88,2 6.72,6.72 0 0 1 1.96,4.9 z m -2.52,0 A 4.27,4.27 0 0 0 17,18.17 4.18,4.18 0 0 0 13.91,16.88 H 9.48 v 8.78 h 4.38 a 4.35,4.35 0 0 0 4.36,-4.38 z"
     class="cls-1" />
</svg>
