<?xml version="1.0" encoding="UTF-8" standalone="no"?>
<svg
   xmlns:dc="http://purl.org/dc/elements/1.1/"
   xmlns:cc="http://creativecommons.org/ns#"
   xmlns:rdf="http://www.w3.org/1999/02/22-rdf-syntax-ns#"
   xmlns:svg="http://www.w3.org/2000/svg"
   xmlns="http://www.w3.org/2000/svg"
   xmlns:sodipodi="http://sodipodi.sourceforge.net/DTD/sodipodi-0.dtd"
   xmlns:inkscape="http://www.inkscape.org/namespaces/inkscape"
   id="svg8"
   version="1.1"
   viewBox="0 0 36 36"
   height="36"
   width="36"
   sodipodi:docname="project-name.svg"
   inkscape:version="1.0 (6e3e5246a0, 2020-05-07)">
  <sodipodi:namedview
     fit-margin-bottom="0"
     fit-margin-right="0"
     fit-margin-left="0"
     fit-margin-top="0"
     inkscape:bbox-paths="true"
     inkscape:snap-bbox="true"
     inkscape:snap-intersection-paths="true"
     inkscape:document-rotation="0"
     pagecolor="#ffffff"
     bordercolor="#666666"
     borderopacity="1"
     objecttolerance="10"
     gridtolerance="10"
     guidetolerance="10"
     inkscape:pageopacity="0"
     inkscape:pageshadow="2"
     inkscape:window-width="1920"
     inkscape:window-height="1016"
     id="namedview7"
     showgrid="false"
     inkscape:snap-page="true"
     showguides="true"
     inkscape:guide-bbox="true"
     inkscape:zoom="12.182861"
     inkscape:cx="15.068621"
     inkscape:cy="9.2024832"
     inkscape:window-x="0"
     inkscape:window-y="0"
     inkscape:window-maximized="1"
     inkscape:current-layer="svg8" />
  <defs
     id="defs2" />
  <metadata
     id="metadata5">
    <rdf:RDF>
      <cc:Work
         rdf:about="">
        <dc:format>image/svg+xml</dc:format>
        <dc:type
           rdf:resource="http://purl.org/dc/dcmitype/StillImage" />
        <dc:title></dc:title>
      </cc:Work>
    </rdf:RDF>
  </metadata>
  <circle
     style="font-variation-settings:normal;vector-effect:none;fill:#480a2a;fill-opacity:1;stroke:none;stroke-width:2.50594;stroke-linecap:butt;stroke-linejoin:miter;stroke-miterlimit:4;stroke-dasharray:none;stroke-dashoffset:0;stroke-opacity:0.985824;stop-color:#000000"
     id="path21"
     cx="25.455849"
     cy="8.0532036e-06"
     r="18"
     transform="rotate(45)" />
  <path
     d="m 18.530058,20.182571 a 0.70126878,0.70126878 0 0 0 -0.701269,0.701269 0.70126878,0.70126878 0 0 0 0.701269,0.701269 h 4.424704 a 0.70126878,0.70126878 0 0 0 0.70127,-0.701269 0.70126878,0.70126878 0 0 0 -0.70127,-0.701269 z m 0,-2.896158 a 0.70126878,0.70126878 0 0 0 -0.701269,0.701269 0.70126878,0.70126878 0 0 0 0.701269,0.701269 h 8.569998 a 0.70126878,0.70126878 0 0 0 0.701268,-0.701269 0.70126878,0.70126878 0 0 0 -0.701268,-0.701269 z M 7.5843756,9.6334069 c -1.4560822,0 -2.6578364,1.2017531 -2.6578364,2.6578361 v 11.417533 c 0,1.456082 1.2017542,2.657835 2.6578364,2.657835 H 28.415619 c 1.456083,0 2.657837,-1.201753 2.657837,-2.657835 V 12.291243 c 0,-1.456083 -1.201754,-2.6578361 -2.657837,-2.6578361 z m 0,1.8935621 H 28.415619 c 0.439876,0 0.764959,0.324399 0.764959,0.764274 v 11.417533 c 0,0.439874 -0.325083,0.764273 -0.764959,0.764273 H 7.5843756 c -0.4398753,0 -0.7642735,-0.324399 -0.7642735,-0.764273 V 12.291243 c 0,-0.439875 0.3243982,-0.764274 0.7642735,-0.764274 z m 6.8953554,4.073444 a 2.17747,2.17747 0 0 1 -2.177471,2.17747 2.17747,2.17747 0 0 1 -2.177469,-2.17747 2.17747,2.17747 0 0 1 2.177469,-2.177471 2.17747,2.17747 0 0 1 2.177471,2.177471 m 4.050327,-1.18071 a 0.70126878,0.70126878 0 0 0 -0.701269,0.701269 0.70126878,0.70126878 0 0 0 0.701269,0.701269 h 8.569998 a 0.70126878,0.70126878 0 0 0 0.701268,-0.701269 0.70126878,0.70126878 0 0 0 -0.701268,-0.701269 z m -8.9855253,4.083851 c -0.793842,0 -1.4335207,0.638856 -1.4335207,1.432698 v 2.617018 h 8.382353 v -2.617018 c 0,-0.793842 -0.638857,-1.432698 -1.432699,-1.432698 z"
     style="color:#000000;font-style:normal;font-variant:normal;font-weight:normal;font-stretch:normal;font-size:medium;line-height:normal;font-family:sans-serif;font-variant-ligatures:normal;font-variant-position:normal;font-variant-caps:normal;font-variant-numeric:normal;font-variant-alternates:normal;font-variant-east-asian:normal;font-feature-settings:normal;font-variation-settings:normal;text-indent:0;text-align:start;text-decoration:none;text-decoration-line:none;text-decoration-style:solid;text-decoration-color:#000000;letter-spacing:normal;word-spacing:normal;text-transform:none;writing-mode:lr-tb;direction:ltr;text-orientation:mixed;dominant-baseline:auto;baseline-shift:baseline;text-anchor:start;white-space:normal;shape-padding:0;shape-margin:0;inline-size:0;clip-rule:nonzero;display:inline;overflow:visible;visibility:visible;isolation:auto;mix-blend-mode:normal;color-interpolation:sRGB;color-interpolation-filters:linearRGB;solid-color:#000000;solid-opacity:1;vector-effect:none;fill:#ffffff;fill-opacity:1;fill-rule:nonzero;stroke:none;stroke-width:1.40254;stroke-linecap:round;stroke-linejoin:round;stroke-miterlimit:4;stroke-dasharray:none;stroke-dashoffset:0;stroke-opacity:1;color-rendering:auto;image-rendering:auto;shape-rendering:auto;text-rendering:auto;enable-background:accumulate;stop-color:#000000"
     id="path876" />
</svg>
