<?xml version="1.0" encoding="UTF-8" standalone="no"?>
<svg
   id="spinner"
   width="22"
   height="22"
   viewBox="0 0 5.8208334 5.8208333"
   version="1.1"
   sodipodi:docname="spinner.svg"
   inkscape:version="1.1 (ce6663b3b7, 2021-05-25)"
   xmlns:inkscape="http://www.inkscape.org/namespaces/inkscape"
   xmlns:sodipodi="http://sodipodi.sourceforge.net/DTD/sodipodi-0.dtd"
   xmlns="http://www.w3.org/2000/svg"
   xmlns:svg="http://www.w3.org/2000/svg">
  <path
     d="M 2.992421,0 2.6240262,0.01297417 2.5846692,0.53454458 A 2.3981084,2.398104 0 0 0 1.8509295,0.7590354 L 1.5263096,0.3488112 1.2136338,0.54429258 1.4402727,1.0157531 A 2.3981084,2.398104 0 0 0 0.91711666,1.5770656 L 0.43095703,1.3841212 0.25790066,1.7096078 0.68999641,2.0046862 A 2.3981084,2.398104 0 0 0 0.51757224,2.7523345 L 0,2.8284158 0.01296551,3.1968128 0.53468602,3.2361755 A 2.3981084,2.398104 0 0 0 0.7590284,3.9699084 L 0.34895172,4.2945349 0.54428432,4.6072009 1.0158934,4.3805699 A 2.3981084,2.398104 0 0 0 1.5770671,4.9035681 L 1.3841147,5.3898765 1.7096002,5.562934 2.0046815,5.1308391 a 2.3981084,2.398104 0 0 0 0.7476473,0.1724232 l 0.076084,0.517571 0.3683948,-0.012974 0.039366,-0.521721 A 2.3981084,2.398104 0 0 0 3.969905,5.061795 L 4.2945321,5.4718716 4.6072016,5.2765408 4.3805702,4.8049325 A 2.3981084,2.398104 0 0 0 4.9035693,4.243759 L 5.3898786,4.4367122 5.5629335,4.1112255 5.1308378,3.8161471 A 2.3981084,2.398104 0 0 0 5.3032614,3.0684988 L 5.8208333,2.9924175 5.8078591,2.6240205 5.2861401,2.5846578 A 2.3981084,2.398104 0 0 0 5.0617965,1.8509249 L 5.4720215,1.5263071 5.2765398,1.2136324 4.8049306,1.4402634 A 2.3981084,2.398104 0 0 0 4.243759,0.91726528 L 4.4367096,0.43095682 4.1112253,0.25789932 3.8161434,0.68999427 A 2.3981084,2.398104 0 0 0 3.0684938,0.517571 Z M 2.97881,1.4645466 A 1.4474586,1.447456 0 0 1 2.9842,1.4648217 1.4474586,1.447456 0 0 1 4.3560156,2.9841899 1.4474586,1.447456 0 0 1 2.8366416,4.356003 1.4474586,1.447456 0 0 1 1.4648238,2.8366348 1.4474586,1.447456 0 0 1 2.9788154,1.4645466 Z"
     id="cog-path" />
</svg>
